<?xml version="1.0" encoding="utf-8"?>
<!-- Generator: Adobe Illustrator 27.3.1, SVG Export Plug-In . SVG Version: 6.00 Build 0)  -->
<svg version="1.1" id="Layer_1" xmlns="http://www.w3.org/2000/svg" xmlns:xlink="http://www.w3.org/1999/xlink" x="0px" y="0px"
	 viewBox="0 0 99.21 99.21" style="enable-background:new 0 0 99.21 99.21;" xml:space="preserve">
<style type="text/css">
	.st0{fill:none;}
	.st1{fill:#252532;}
</style>
<g>
	<path class="st0" d="M95.7,97.81c-1.97,0-3.57-1.6-3.57-3.57c0-1.97,1.6-3.57,3.57-3.57h3.51v-2.79H74.97
		c-1.97,0-3.57-1.6-3.57-3.57c0-1.97,1.6-3.57,3.57-3.57h24.25v-2.79h-0.73c-1.97,0-3.57-1.6-3.57-3.57c0-1.97,1.6-3.57,3.57-3.57
		h0.73v-2.79H66.39c-1.97,0-3.57-1.6-3.57-3.57l0,0c0-1.97,1.59-3.57,3.57-3.57h32.82v-2.78H86.9c-1.97,0-3.57-1.6-3.57-3.57
		c0-1.97,1.6-3.57,3.57-3.57h12.32v-2.78H66.13c-1.97,0-3.57-1.6-3.57-3.57c0-1.97,1.59-3.57,3.57-3.57h33.08v-2.78H86.9
		c-1.97,0-3.57-1.6-3.57-3.57l0,0c0-1.97,1.6-3.57,3.57-3.57h12.32V18.44H77.52c-1.97,0-3.57-1.59-3.57-3.57
		c0-1.97,1.6-3.57,3.57-3.57h21.69V-0.01H0V11.3h21.8c1.97,0,3.57,1.6,3.57,3.57c0,1.97-1.59,3.57-3.57,3.57H0v12.7h33.17
		c1.97,0,3.57,1.6,3.57,3.57l0,0c0,1.97-1.6,3.57-3.57,3.57H0v2.78h12.4c1.97,0,3.57,1.6,3.57,3.57c0,1.97-1.6,3.57-3.57,3.57H0
		v2.78h33.17c1.97,0,3.57,1.6,3.57,3.57c0,1.97-1.6,3.57-3.57,3.57H0v2.78h12.65c1.97,0,3.57,1.6,3.57,3.57l0,0
		c0,1.97-1.59,3.57-3.57,3.57H0v2.79h42.87c1.97,0,3.57,1.6,3.57,3.57c0,1.97-1.6,3.57-3.57,3.57H0v2.79h19.24
		c1.97,0,3.57,1.6,3.57,3.57c0,1.97-1.59,3.57-3.57,3.57H0v2.79h32.26c1.97,0,3.57,1.6,3.57,3.57c0,1.97-1.6,3.57-3.57,3.57H0v1.39
		h99.21v-1.39H95.7V97.81z M88.56,70.83c1.97,0,3.57,1.6,3.57,3.57c0,1.97-1.6,3.57-3.57,3.57H52.79c-1.97,0-3.57-1.6-3.57-3.57
		c0-1.97,1.6-3.57,3.57-3.57H88.56z M76.98,50.99c1.97,0,3.57,1.6,3.57,3.57c0,1.97-1.6,3.57-3.57,3.57h-33.9
		c-1.97,0-3.57-1.6-3.57-3.57c0-1.97,1.6-3.57,3.57-3.57H76.98z M80.54,34.71c0,1.97-1.6,3.57-3.57,3.57H43.08
		c-1.97,0-3.57-1.6-3.57-3.57l0,0c0-1.97,1.6-3.57,3.57-3.57h33.89C78.95,31.14,80.54,32.74,80.54,34.71L80.54,34.71z M94.25,21.22
		c1.97,0,3.57,1.59,3.57,3.57c0,1.97-1.6,3.57-3.57,3.57H50.65c-1.97,0-3.57-1.59-3.57-3.57c0-1.97,1.6-3.57,3.57-3.57H94.25z
		 M31.72,18.44c-1.97,0-3.57-1.59-3.57-3.57c0-1.97,1.59-3.57,3.57-3.57h35.78c1.97,0,3.57,1.6,3.57,3.57c0,1.97-1.6,3.57-3.57,3.57
		H31.72z M58.48,1.38h35.78c1.97,0,3.57,1.6,3.57,3.57c0,1.97-1.6,3.57-3.57,3.57H58.48c-1.97,0-3.57-1.6-3.57-3.57
		C54.91,2.98,56.51,1.38,58.48,1.38z M4.96,8.52c-1.97,0-3.57-1.6-3.57-3.57c0-1.97,1.6-3.57,3.57-3.57h43.6
		c1.97,0,3.57,1.6,3.57,3.57c0,1.97-1.6,3.57-3.57,3.57H4.96z M4.96,28.36c-1.97,0-3.57-1.59-3.57-3.57c0-1.97,1.6-3.57,3.57-3.57
		h35.78c1.97,0,3.57,1.59,3.57,3.57c0,1.97-1.6,3.57-3.57,3.57H4.96z M22.32,48.2c-1.97,0-3.57-1.6-3.57-3.57
		c0-1.97,1.59-3.57,3.57-3.57h33.9c1.97,0,3.57,1.6,3.57,3.57c0,1.97-1.6,3.57-3.57,3.57H22.32z M22.57,68.04
		c-1.97,0-3.57-1.6-3.57-3.57l0,0c0-1.97,1.59-3.57,3.57-3.57h33.9c1.97,0,3.57,1.6,3.57,3.57l0,0c0,1.97-1.6,3.57-3.57,3.57H22.57z
		 M29.27,87.89c-1.97,0-3.57-1.6-3.57-3.57c0-1.97,1.59-3.57,3.57-3.57h35.77c1.97,0,3.57,1.6,3.57,3.57c0,1.97-1.6,3.57-3.57,3.57
		H29.27z M85.77,97.81H42.18c-1.97,0-3.57-1.6-3.57-3.57c0-1.97,1.6-3.57,3.57-3.57h43.59c1.97,0,3.57,1.6,3.57,3.57
		C89.34,96.21,87.74,97.81,85.77,97.81z"/>
	<path class="st1" d="M58.48,8.52h35.78c1.97,0,3.57-1.6,3.57-3.57c0-1.97-1.6-3.57-3.57-3.57H58.48c-1.97,0-3.57,1.6-3.57,3.57
		C54.91,6.92,56.51,8.52,58.48,8.52z"/>
	<path class="st1" d="M52.12,4.95c0-1.97-1.6-3.57-3.57-3.57H4.96c-1.97,0-3.57,1.6-3.57,3.57c0,1.97,1.6,3.57,3.57,3.57h43.6
		C50.53,8.52,52.12,6.92,52.12,4.95z"/>
	<path class="st1" d="M44.3,24.79c0-1.97-1.6-3.57-3.57-3.57H4.96c-1.97,0-3.57,1.59-3.57,3.57c0,1.97,1.6,3.57,3.57,3.57h35.78
		C42.7,28.36,44.3,26.76,44.3,24.79z"/>
	<path class="st1" d="M47.08,24.79c0,1.97,1.6,3.57,3.57,3.57h43.59c1.97,0,3.57-1.59,3.57-3.57c0-1.97-1.6-3.57-3.57-3.57H50.65
		C48.68,21.22,47.08,22.82,47.08,24.79z"/>
	<path class="st1" d="M73.95,14.87c0,1.97,1.6,3.57,3.57,3.57h21.69V11.3H77.52C75.55,11.3,73.95,12.9,73.95,14.87z"/>
	<path class="st1" d="M62.56,44.63c0,1.97,1.59,3.57,3.57,3.57h33.08v-7.13H66.13C64.16,41.07,62.56,42.66,62.56,44.63z"/>
	<path class="st1" d="M15.96,44.63c0-1.97-1.6-3.57-3.57-3.57H0v7.13h12.4C14.36,48.2,15.96,46.6,15.96,44.63z"/>
	<path class="st1" d="M59.78,44.63c0-1.97-1.6-3.57-3.57-3.57H22.32c-1.97,0-3.57,1.6-3.57,3.57c0,1.97,1.59,3.57,3.57,3.57h33.9
		C58.18,48.2,59.78,46.6,59.78,44.63z"/>
	<path class="st1" d="M83.33,34.71L83.33,34.71c0,1.97,1.6,3.57,3.57,3.57h12.32v-7.14H86.9C84.93,31.14,83.33,32.74,83.33,34.71z"
		/>
	<path class="st1" d="M36.73,34.71L36.73,34.71c0-1.97-1.6-3.57-3.57-3.57H0v7.14h33.17C35.13,38.28,36.73,36.68,36.73,34.71z"/>
	<path class="st1" d="M76.98,31.14h-33.9c-1.97,0-3.57,1.6-3.57,3.57l0,0c0,1.97,1.6,3.57,3.57,3.57h33.89
		c1.97,0,3.57-1.6,3.57-3.57l0,0C80.54,32.74,78.95,31.14,76.98,31.14z"/>
	<path class="st1" d="M71.06,14.87c0-1.97-1.6-3.57-3.57-3.57H31.72c-1.97,0-3.57,1.6-3.57,3.57c0,1.97,1.59,3.57,3.57,3.57h35.78
		C69.46,18.44,71.06,16.84,71.06,14.87z"/>
	<path class="st1" d="M25.36,14.87c0-1.97-1.59-3.57-3.57-3.57H0v7.14h21.8C23.77,18.44,25.36,16.84,25.36,14.87z"/>
	<path class="st1" d="M35.82,94.24c0-1.97-1.6-3.57-3.57-3.57H0v7.14h32.26C34.23,97.81,35.82,96.21,35.82,94.24z"/>
	<path class="st1" d="M92.13,94.24c0,1.97,1.6,3.57,3.57,3.57h3.51v-7.14H95.7C93.73,90.67,92.13,92.27,92.13,94.24z"/>
	<path class="st1" d="M85.77,90.67H42.18c-1.97,0-3.57,1.6-3.57,3.57c0,1.97,1.6,3.57,3.57,3.57h43.59c1.97,0,3.57-1.6,3.57-3.57
		S87.74,90.67,85.77,90.67z"/>
	<path class="st1" d="M49.22,74.4c0,1.97,1.6,3.57,3.57,3.57h35.77c1.97,0,3.57-1.6,3.57-3.57c0-1.97-1.6-3.57-3.57-3.57H52.79
		C50.82,70.83,49.22,72.43,49.22,74.4z"/>
	<path class="st1" d="M94.91,74.4c0,1.97,1.6,3.57,3.57,3.57h0.73v-7.14h-0.73C96.51,70.83,94.91,72.43,94.91,74.4z"/>
	<path class="st1" d="M46.43,74.4c0-1.97-1.6-3.57-3.57-3.57H0v7.14h42.87C44.84,77.96,46.43,76.37,46.43,74.4z"/>
	<path class="st1" d="M22.81,84.32c0-1.97-1.59-3.57-3.57-3.57H0v7.14h19.24C21.21,87.89,22.81,86.29,22.81,84.32z"/>
	<path class="st1" d="M36.73,54.55c0-1.97-1.6-3.57-3.57-3.57H0v7.13h33.17C35.13,58.12,36.73,56.52,36.73,54.55z"/>
	<path class="st1" d="M83.33,54.55c0,1.97,1.6,3.57,3.57,3.57h12.32v-7.13H86.9C84.93,50.99,83.33,52.58,83.33,54.55z"/>
	<path class="st1" d="M39.52,54.55c0,1.97,1.6,3.57,3.57,3.57h33.89c1.97,0,3.57-1.6,3.57-3.57c0-1.97-1.6-3.57-3.57-3.57h-33.9
		C41.11,50.99,39.52,52.58,39.52,54.55z"/>
	<path class="st1" d="M16.22,64.48L16.22,64.48c0-1.97-1.59-3.57-3.57-3.57H0v7.13h12.65C14.62,68.04,16.22,66.45,16.22,64.48z"/>
	<path class="st1" d="M62.82,64.48L62.82,64.48c0,1.97,1.59,3.57,3.57,3.57h32.82v-7.13H66.39C64.41,60.91,62.82,62.51,62.82,64.48z
		"/>
	<path class="st1" d="M60.03,64.48L60.03,64.48c0-1.97-1.6-3.57-3.57-3.57H22.57c-1.97,0-3.57,1.6-3.57,3.57l0,0
		c0,1.97,1.59,3.57,3.57,3.57h33.9C58.43,68.04,60.03,66.45,60.03,64.48z"/>
	<path class="st1" d="M68.61,84.32c0-1.97-1.6-3.57-3.57-3.57H29.27c-1.97,0-3.57,1.6-3.57,3.57c0,1.97,1.59,3.57,3.57,3.57h35.77
		C67.01,87.89,68.61,86.29,68.61,84.32z"/>
	<path class="st1" d="M71.4,84.32c0,1.97,1.6,3.57,3.57,3.57h24.25v-7.14H74.97C72.99,80.75,71.4,82.35,71.4,84.32z"/>
</g>
</svg>
