<svg width="32" height="32" viewBox="0 0 32 32" fill="none" xmlns="http://www.w3.org/2000/svg">
<path d="M0.871948 4.36808C0 6.07937 0 8.31958 0 12.8V19.2C0 23.6804 0 25.9206 0.871948 27.6319C1.63893 29.1372 2.86278 30.3611 4.36808 31.1281C6.07937 32 8.31958 32 12.8 32H15.863V19.8695H11.3252V14.7606H15.863V10.8667C15.863 6.43713 18.5311 3.99036 22.6135 3.99036C24.5688 3.99036 26.6141 4.33556 26.6141 4.33556V8.68507H24.3605C22.1403 8.68507 21.448 10.0474 21.448 11.4451V14.7606H26.4046L25.6123 19.8695H21.448V31.9946C24.4837 31.9707 26.2342 31.8402 27.6319 31.1281C29.1372 30.3611 30.3611 29.1372 31.1281 27.6319C32 25.9206 32 23.6804 32 19.2V12.8C32 8.31958 32 6.07937 31.1281 4.36808C30.3611 2.86278 29.1372 1.63893 27.6319 0.871948C25.9206 0 23.6804 0 19.2 0H12.8C8.31958 0 6.07937 0 4.36808 0.871948C2.86278 1.63893 1.63893 2.86278 0.871948 4.36808Z" fill="white"/>
</svg>
