<svg width="32" height="24" viewBox="0 0 32 24" fill="none" xmlns="http://www.w3.org/2000/svg">
<path fill-rule="evenodd" clip-rule="evenodd" d="M30.3289 2.4455C30.8254 2.94519 31.1819 3.56651 31.3628 4.24729C32.0319 6.76002 32.0319 12 32.0319 12C32.0319 12 32.0319 17.24 31.3628 19.7527C31.1819 20.4335 30.8254 21.0549 30.3289 21.5545C29.8324 22.0542 29.2133 22.4147 28.5337 22.6C26.0319 23.2727 16.0319 23.2727 16.0319 23.2727C16.0319 23.2727 6.0319 23.2727 3.53008 22.6C2.85048 22.4147 2.23145 22.0542 1.73495 21.5545C1.23846 21.0549 0.88191 20.4335 0.700993 19.7527C0.0319023 17.24 0.0319023 12 0.0319023 12C0.0319023 12 0.0319023 6.76002 0.700993 4.24729C0.88191 3.56651 1.23846 2.94519 1.73495 2.4455C2.23145 1.94582 2.85048 1.5853 3.53008 1.40002C6.0319 0.727295 16.0319 0.727295 16.0319 0.727295C16.0319 0.727295 26.0319 0.727295 28.5337 1.40002C29.2133 1.5853 29.8324 1.94582 30.3289 2.4455ZM21.1227 12L12.7591 7.24186V16.7582L21.1227 12Z" fill="white"/>
</svg>
