<svg width="14" height="12" viewBox="0 0 14 12" fill="none" xmlns="http://www.w3.org/2000/svg">
<path fill-rule="evenodd" clip-rule="evenodd" d="M1.51271 0.18768C1.26827 0.183848 1.04677 0.331124 0.955733 0.558016C0.8647 0.784907 0.922981 1.04444 1.10228 1.21062L5.2089 5.01674L6.58049 10.8376C6.63654 11.0755 6.83342 11.2542 7.07559 11.2871C7.31777 11.3199 7.55514 11.2001 7.67254 10.9858L13.0138 1.23359C13.1132 1.05219 13.1103 0.832021 13.0063 0.653261C12.9023 0.474501 12.7123 0.36324 12.5055 0.359998L1.51271 0.18768ZM5.87914 4.02861L3.03438 1.39201L10.2546 1.50519L5.87914 4.02861ZM6.43434 5.07098L7.37646 9.06923L11.0124 2.4307L6.43434 5.07098Z" fill="black"/>
</svg>
