<svg width="32" height="32" viewBox="0 0 32 32" fill="none" xmlns="http://www.w3.org/2000/svg">
<g clip-path="url(#clip0_114_26)">
<path d="M16.0014 0C7.17875 0 0 7.17875 0 16.0014C0 24.8241 7.17875 32.0028 16.0014 32.0028C24.8241 32.0028 32.0028 24.8241 32.0028 16.0014C32.0028 7.17875 24.8213 0 16.0014 0ZM17.4686 28.9815V28.2353C17.4686 27.4274 16.8093 26.7681 16.0014 26.7681C15.1935 26.7681 14.5342 27.4274 14.5342 28.2353V28.9815C8.45516 28.3026 3.67774 23.5112 3.01569 17.4293H3.72824C4.53616 17.4293 5.19541 16.7701 5.19541 15.9621C5.19541 15.1542 4.53616 14.495 3.72824 14.495H3.0213C3.71702 8.45516 8.48882 3.69457 14.5342 3.0185V3.69177C14.5342 4.49969 15.1935 5.15894 16.0014 5.15894C16.8093 5.15894 17.4686 4.49969 17.4686 3.69177V3.0185C23.5112 3.69457 28.2858 8.45516 28.9787 14.495H28.2718C27.4638 14.495 26.8046 15.1542 26.8046 15.9621C26.8046 16.7701 27.4638 17.4293 28.2718 17.4293H28.9843C28.3223 23.5112 23.5448 28.2998 17.4658 28.9815H17.4686Z" fill="#313131"/>
<path d="M23.6851 7.78467C23.3737 7.79308 23.082 7.92213 22.866 8.14655L15.92 15.4235C15.8864 15.4235 15.8527 15.4291 15.8191 15.4319L10.0317 11.0584C9.51556 10.6713 8.78338 10.7751 8.39625 11.2885C8.20829 11.5353 8.12694 11.8439 8.16902 12.1553C8.2111 12.4667 8.37381 12.7416 8.62348 12.9296L14.408 17.3002C14.5342 18.0689 15.2103 18.6524 16.0014 18.6524C16.8907 18.6524 17.6144 17.9286 17.6173 17.0393L24.5604 9.7624C25.0036 9.29392 24.9868 8.55332 24.5211 8.11008C24.2967 7.89407 24.0077 7.78186 23.6851 7.78747V7.78467Z" fill="#313131"/>
</g>
<defs>
<clipPath id="clip0_114_26">
<rect width="32" height="32" fill="white"/>
</clipPath>
</defs>
</svg>
