<?xml version="1.0" encoding="utf-8"?>
<!-- Generator: Adobe Illustrator 27.3.1, SVG Export Plug-In . SVG Version: 6.00 Build 0)  -->
<svg version="1.1" id="Layer_1" xmlns="http://www.w3.org/2000/svg" xmlns:xlink="http://www.w3.org/1999/xlink" x="0px" y="0px"
	 viewBox="0 0 90.7 90.7" style="enable-background:new 0 0 90.7 90.7;" xml:space="preserve">
<style type="text/css">
	.st0{fill-rule:evenodd;clip-rule:evenodd;fill:none;}
	.st1{fill-rule:evenodd;clip-rule:evenodd;}
</style>
<rect y="0" class="st0" width="90.7" height="90.7"/>
<path class="st1" d="M4.5,3.7C2.6,3.7,1,4.8,0.3,6.5c-0.7,1.7-0.2,3.6,1.1,4.9L32,39.7l10.2,43.4c0.4,1.8,1.9,3.1,3.7,3.3
	c1.8,0.2,3.6-0.6,4.4-2.2l39.8-72.7c0.7-1.4,0.7-3-0.1-4.3S87.9,5,86.4,5L4.5,3.7z M37,32.3L15.8,12.7l53.8,0.8L37,32.3z M41.1,40.1
	l7,29.8l27.1-49.5L41.1,40.1z"/>
</svg>
