<svg width="33" height="27" viewBox="0 0 33 27" fill="none" xmlns="http://www.w3.org/2000/svg">
<path fill-rule="evenodd" clip-rule="evenodd" d="M2.69983 11.4164C11.2898 7.6739 17.0177 5.20663 19.8837 4.01456C28.0667 0.610971 29.7671 0.0197313 30.8753 0.00020816C31.1191 -0.00408573 31.6641 0.0563235 32.0171 0.342789C32.3152 0.584674 32.3973 0.911427 32.4365 1.14076C32.4758 1.3701 32.5246 1.89253 32.4858 2.30074C32.0423 6.95999 30.1236 18.2668 29.1474 23.4852C28.7344 25.6933 27.9211 26.4337 27.1337 26.5062C25.4226 26.6636 24.1232 25.3753 22.4659 24.2889C19.8725 22.5889 18.4074 21.5307 15.8901 19.8718C12.9809 17.9547 14.8668 16.901 16.5247 15.179C16.9586 14.7283 24.4979 7.87072 24.6439 7.24863C24.6621 7.17083 24.6791 6.88082 24.5068 6.72768C24.3345 6.57454 24.0802 6.62691 23.8967 6.66856C23.6366 6.72759 19.4936 9.46594 11.4678 14.8836C10.2918 15.6911 9.22666 16.0845 8.27232 16.0639C7.22023 16.0412 5.19644 15.4691 3.69196 14.98C1.84666 14.3802 0.380043 14.063 0.507752 13.0443C0.574271 12.5137 1.30496 11.9711 2.69983 11.4164Z" fill="white"/>
</svg>
