<svg width="32" height="32" viewBox="0 0 32 32" fill="none" xmlns="http://www.w3.org/2000/svg">
<g clip-path="url(#clip0_114_87)">
<path d="M8.77199 10.8282C9.05052 9.94397 9.80937 8.88569 10.3592 8.61435C10.6028 8.49582 10.7837 8.46806 11.3754 8.46774C12.0716 8.46774 12.1065 8.47492 12.2874 8.65582C12.4056 8.7812 12.7259 9.46332 13.1854 10.5634C13.5752 11.5103 13.8956 12.3178 13.8956 12.3596C13.8956 12.5549 13.5057 13.1743 13.0603 13.6964C12.754 14.0514 12.5731 14.3227 12.5731 14.4204C12.5731 14.5108 12.7958 14.9284 13.0743 15.3392C13.7496 16.3488 14.9956 17.6017 15.9635 18.2424C16.722 18.7436 18.0728 19.398 18.3442 19.398C18.5463 19.398 18.9153 19.0358 19.6669 18.0899C19.9736 17.7072 20.2449 17.4287 20.3494 17.4078C20.4398 17.3797 20.6629 17.4146 20.8438 17.4842C21.3659 17.686 24.0046 18.9738 24.1437 19.0992C24.4153 19.3496 24.1926 20.7837 23.7887 21.3686C23.169 22.2737 21.4008 23.0466 20.238 22.9281C19.3887 22.8376 17.3839 22.1764 16.082 21.5566C14.4111 20.756 12.6498 19.2938 11.2226 17.5047C10.4079 16.4883 9.58635 15.2491 9.23142 14.5111C8.75109 13.5087 8.57705 12.7358 8.62571 11.8447C8.6466 11.4617 8.71615 11.0023 8.77199 10.8282Z" fill="white"/>
<path fill-rule="evenodd" clip-rule="evenodd" d="M0.807742 12.6659C2.10961 5.98971 7.43529 1.01211 14.2787 0.0792126C15.2184 -0.0530303 17.8571 -0.0112365 18.7694 0.141906C19.7232 0.308763 20.9833 0.635945 21.7562 0.928514C26.866 2.82891 30.6394 7.22203 31.7114 12.5059C32.1777 14.8102 32.0732 17.5116 31.4397 19.781C29.9289 25.1553 25.5429 29.3881 20.0919 30.7386C16.5415 31.6157 12.81 31.2327 9.44736 29.6594L8.62582 29.2696L4.32348 30.641C1.96333 31.393 0.0142774 31.9918 0.000236623 31.9778C-0.0138041 31.9638 0.598764 30.0911 1.37166 27.8286L2.77083 23.7L2.20692 22.5793C0.640559 19.4257 0.160236 16.0145 0.807742 12.6659ZM29.0378 12.1229C27.6664 7.11035 23.3082 3.28834 18.1774 2.59218C15.3788 2.21634 12.7401 2.64116 10.3104 3.86629C4.42078 6.84587 1.61525 13.6546 3.73801 19.8087C4.00936 20.5953 4.74045 22.0784 5.19302 22.7605L5.55514 23.3036L4.74764 25.6706C4.30225 26.9724 3.94013 28.0657 3.94013 28.0934C3.94013 28.128 5.06078 27.794 6.42534 27.3623C7.79676 26.9238 8.93863 26.5685 8.95953 26.5685C8.98761 26.5685 9.25896 26.7148 9.55838 26.8889C12.7956 28.817 16.8334 29.235 20.4746 28.0235C24.7354 26.6103 28.0141 23.0946 29.1142 18.7645C29.6503 16.6479 29.6226 14.2604 29.0378 12.1229Z" fill="white"/>
</g>
<defs>
<clipPath id="clip0_114_87">
<rect width="32" height="32" fill="white"/>
</clipPath>
</defs>
</svg>
