<svg width="33" height="32" viewBox="0 0 33 32" fill="none" xmlns="http://www.w3.org/2000/svg">
<g clip-path="url(#clip0_127_67)">
<path fill-rule="evenodd" clip-rule="evenodd" d="M2.69983 15.4164C11.2898 11.6739 17.0177 9.20663 19.8837 8.01456C28.0667 4.61097 29.7671 4.01973 30.8753 4.00021C31.1191 3.99591 31.6641 4.05632 32.0171 4.34279C32.3152 4.58467 32.3973 4.91143 32.4365 5.14076C32.4758 5.3701 32.5246 5.89253 32.4858 6.30074C32.0423 10.96 30.1236 22.2668 29.1474 27.4852C28.7344 29.6933 27.9211 30.4337 27.1337 30.5062C25.4226 30.6636 24.1232 29.3753 22.4659 28.2889C19.8725 26.5889 18.4074 25.5307 15.8901 23.8718C12.9809 21.9547 14.8668 20.901 16.5247 19.179C16.9586 18.7283 24.4979 11.8707 24.6439 11.2486C24.6621 11.1708 24.6791 10.8808 24.5068 10.7277C24.3345 10.5745 24.0802 10.6269 23.8967 10.6686C23.6366 10.7276 19.4936 13.4659 11.4678 18.8836C10.2918 19.6911 9.22666 20.0845 8.27232 20.0639C7.22023 20.0412 5.19644 19.4691 3.69196 18.98C1.84666 18.3802 0.380043 18.063 0.507752 17.0443C0.574271 16.5137 1.30496 15.9711 2.69983 15.4164Z" fill="white"/>
</g>
<defs>
<clipPath id="clip0_127_67">
<rect width="32" height="32" fill="white" transform="translate(0.5)"/>
</clipPath>
</defs>
</svg>
