<svg width="21" height="17" viewBox="0 0 21 17" fill="none" xmlns="http://www.w3.org/2000/svg">
<g clip-path="url(#clip0_1_18)">
<path d="M5.6951 7.5101L6.6918 6.76732V3.69029C6.6918 3.34149 6.85738 3.01003 7.13465 2.80328L9.70366 0.8894C10.0891 0.602408 10.6069 0.602408 10.9923 0.8894L13.5613 2.80365C13.8386 3.0104 14.0041 3.34185 14.0041 3.69065V6.76768L15.0008 7.51046C15.3545 7.77396 15.5657 8.19722 15.5657 8.64181V13.8528C15.2467 13.8514 14.928 13.8688 14.6115 13.9056V8.64181C14.6115 8.50301 14.5455 8.37108 14.4352 8.28903L10.604 5.43465C10.4506 5.32043 10.2447 5.32043 10.0912 5.43465L6.26 8.28939C6.14973 8.3718 6.08371 8.50373 6.08371 8.64217V13.906C5.76718 13.8688 5.44851 13.8518 5.12948 13.8532V8.64217C5.12948 8.19722 5.34074 7.77432 5.69438 7.51082L5.6951 7.5101ZM7.64603 6.05635L8.28516 5.57995L8.5321 5.39597L9.52595 4.65536C10.0173 4.28921 10.6779 4.28921 11.1696 4.65536L12.1635 5.39597L12.4104 5.57995L13.0495 6.05635V3.69029C13.0495 3.64763 13.0292 3.60715 12.9953 3.58185L10.4263 1.6676C10.3792 1.63254 10.3157 1.63254 10.2689 1.6676L7.69991 3.58185C7.66601 3.60715 7.64567 3.64763 7.64567 3.69029V6.05635H7.64603Z" fill="white"/>
<path d="M10.3481 8.4412C11.3812 8.4412 12.222 9.29242 12.222 10.3392V14.6354C11.9312 14.8158 11.6628 15.0352 11.4137 15.2687C11.3638 15.316 11.3152 15.3641 11.2678 15.4132V10.3395C11.2678 9.82592 10.8552 9.40808 10.3481 9.40808C9.84105 9.40808 9.42852 9.82592 9.42852 10.3395V15.4132C9.3807 15.3644 9.33217 15.316 9.28257 15.2687C9.03348 15.0352 8.76513 14.8158 8.47429 14.6354V10.3392C8.47429 9.29278 9.31469 8.4412 10.3481 8.4412Z" fill="white"/>
<path d="M5.13019 15.1089C4.62489 15.1024 4.07069 15.1439 3.44833 15.248C3.42157 15.2524 3.39587 15.2571 3.36982 15.2614L1.19371 6.40912C1.54236 6.36864 1.90564 6.34839 2.25536 6.3437C2.60758 6.34044 2.96943 6.35092 3.32308 6.3849C3.35127 6.38924 3.37981 6.39213 3.40801 6.39574L3.93687 14.2844L3.96256 14.6661L4.34083 14.6076C4.60169 14.5743 4.86541 14.5573 5.12984 14.5551C5.44815 14.5526 5.76754 14.5725 6.08407 14.6141C6.57796 14.6788 7.06507 14.7959 7.52898 14.9654C8.02608 15.1859 8.54138 15.354 9.01421 15.633C9.49526 15.9062 9.93883 16.263 10.3478 16.6736C10.1062 16.22 9.79787 15.7913 9.42817 15.4129C9.38035 15.3641 9.33182 15.3156 9.28221 15.2683C9.03313 15.0348 8.76477 14.8154 8.47394 14.635C8.25233 14.4977 8.01823 14.3824 7.76807 14.3047C7.22244 14.1037 6.65718 13.9725 6.08407 13.9053C5.76754 13.868 5.44887 13.851 5.12984 13.8525C4.9821 13.8532 4.834 13.8575 4.68626 13.8662C4.65843 13.868 4.63202 13.8698 4.60526 13.872L4.10851 6.46189L4.06391 5.79682L4.00431 4.90946C4.36046 4.90331 4.7273 4.91885 5.07774 4.94813C5.43067 4.97922 5.79073 5.02476 6.13867 5.09271C6.32138 5.13826 6.50587 5.17368 6.69108 5.20657V4.48403C6.67467 4.47897 6.65825 4.47319 6.64184 4.46812C5.5313 4.24366 4.39507 4.14282 3.26348 4.24366L3.28703 4.59536L3.36019 5.68477C2.34457 5.60453 1.33003 5.63055 0.347609 5.81923L0.432898 6.16658L2.78529 15.7364L2.87808 16.1134C2.87808 16.1134 3.71455 15.8166 5.12984 15.7732C5.42353 15.7642 5.74292 15.7667 6.08407 15.7848C7.03473 15.8343 8.16026 16.0064 9.41282 16.4087C8.32191 15.8781 7.35162 15.3706 6.08407 15.1837C5.78431 15.1396 5.46814 15.1132 5.12984 15.1089H5.13019Z" fill="white"/>
<path d="M15.5657 15.1089C16.071 15.1024 16.6252 15.1439 17.2476 15.248C17.2744 15.2524 17.3 15.2571 17.3261 15.2614L19.5022 6.40948C19.1536 6.369 18.7903 6.34876 18.4406 6.34406C18.0883 6.3408 17.7265 6.35129 17.3728 6.38526C17.3447 6.3896 17.3161 6.39249 17.2879 6.39611L16.7591 14.2848L16.7334 14.6665L16.3551 14.6079C16.0942 14.5747 15.8305 14.5577 15.5661 14.5555C15.2478 14.553 14.9284 14.5729 14.6119 14.6144C14.118 14.6791 13.6309 14.7962 13.1669 14.9658C12.6698 15.1862 12.1545 15.3543 11.6817 15.6334C11.2007 15.9066 10.7571 16.2634 10.3481 16.674C10.5897 16.2204 10.8981 15.7917 11.2678 15.4132C11.3156 15.3644 11.3641 15.316 11.4137 15.2686C11.6628 15.0352 11.9311 14.8158 12.222 14.6354C12.4436 14.498 12.6777 14.3827 12.9278 14.305C13.4735 14.1041 14.0387 13.9728 14.6119 13.9056C14.9284 13.8684 15.2471 13.8514 15.5661 13.8528C15.7138 13.8536 15.8619 13.8579 16.0097 13.8666C16.0375 13.8684 16.0639 13.8702 16.0907 13.8724L16.5874 6.46225L16.632 5.79718L16.6916 4.90982C16.3355 4.90367 15.9686 4.91922 15.6182 4.94849C15.2653 4.97958 14.9052 5.02512 14.5573 5.09308C14.3745 5.13862 14.19 5.17404 14.0048 5.20693V4.48439C14.0213 4.47933 14.0377 4.47355 14.0541 4.46849C15.1646 4.24403 16.3009 4.14318 17.4324 4.24403L17.4089 4.59572L17.3357 5.68513C18.3513 5.60489 19.3659 5.63091 20.3483 5.81959L20.263 6.16695L17.9106 15.7367L17.8178 16.1137C17.8178 16.1137 16.9814 15.817 15.5661 15.7736C15.2724 15.7646 14.953 15.7671 14.6119 15.7852C13.6612 15.8347 12.5357 16.0067 11.2831 16.409C12.374 15.8784 13.3443 15.3709 14.6119 15.1841C14.9116 15.14 15.2278 15.1136 15.5661 15.1092L15.5657 15.1089Z" fill="white"/>
</g>
<defs>
<clipPath id="clip0_1_18">
<rect width="20" height="16" fill="white" transform="matrix(-1 0 0 1 20.348 0.673973)"/>
</clipPath>
</defs>
</svg>
