<svg width="32" height="32" viewBox="0 0 32 32" fill="none" xmlns="http://www.w3.org/2000/svg">
<path d="M22.9019 11.5513C24.9597 13.0275 27.4806 13.8961 30.2034 13.8961V8.63814C29.6881 8.63825 29.1741 8.58432 28.67 8.47714V12.6159C25.9475 12.6159 23.427 11.7473 21.3686 10.2712V21.0012C21.3686 26.3688 17.0327 30.7199 11.6844 30.7199C9.68887 30.7199 7.83407 30.1144 6.29329 29.0761C8.05184 30.8805 10.5043 32 13.2175 32C18.5661 32 22.9022 27.6489 22.9022 22.281V11.5513H22.9019ZM24.7935 6.24665C23.7418 5.09362 23.0514 3.60356 22.9019 1.95622V1.27994H21.4489C21.8146 3.3737 23.0622 5.16248 24.7935 6.24665ZM9.67608 24.9571C9.08851 24.1839 8.77099 23.2381 8.77241 22.2656C8.77241 19.8107 10.7556 17.8202 13.2024 17.8202C13.6584 17.82 14.1116 17.8901 14.5462 18.0285V12.653C14.0383 12.5832 13.5258 12.5535 13.0135 12.5644V16.7484C12.5786 16.61 12.1251 16.5397 11.669 16.5402C9.22228 16.5402 7.23918 18.5305 7.23918 20.9858C7.23918 22.7218 8.23045 24.2249 9.67608 24.9571Z" fill="#FF004F"/>
<path d="M21.3686 10.2711C23.427 11.7472 25.9475 12.6158 28.67 12.6158V8.47703C27.1503 8.15217 25.805 7.35519 24.7935 6.24665C23.0621 5.16237 21.8147 3.37359 21.4489 1.27994H17.6321V22.2808C17.6235 24.7291 15.6437 26.7115 13.2022 26.7115C11.7634 26.7115 10.4853 26.0232 9.67577 24.9571C8.23025 24.2249 7.23897 22.7217 7.23897 20.9859C7.23897 18.5308 9.22207 16.5403 11.6688 16.5403C12.1376 16.5403 12.5894 16.6135 13.0133 16.7485V12.5645C7.75895 12.6734 3.5332 16.982 3.5332 22.2809C3.5332 24.9261 4.58551 27.3241 6.29342 29.0762C7.8342 30.1144 9.689 30.72 11.6846 30.72C17.0329 30.72 21.3687 26.3687 21.3687 21.0012V10.2711H21.3686Z" fill="white"/>
<path d="M28.6701 8.47707V7.35798C27.2997 7.36007 25.9562 6.97492 24.7935 6.24658C25.8228 7.37742 27.1781 8.15716 28.6701 8.47707ZM21.4489 1.27998C21.414 1.07988 21.3872 0.878468 21.3686 0.676285V0H16.0987V21.0011C16.0903 23.449 14.1106 25.4314 11.6688 25.4314C10.952 25.4314 10.2752 25.2606 9.6758 24.9572C10.4853 26.0233 11.7635 26.7114 13.2022 26.7114C15.6435 26.7114 17.6236 24.7292 17.6321 22.281V1.27998H21.4489ZM13.0135 12.5645V11.3732C12.5732 11.3128 12.1292 11.2825 11.6847 11.2827C6.33589 11.2826 2 15.6339 2 21.0011C2 24.366 3.70408 27.3316 6.29356 29.076C4.58565 27.324 3.53334 24.9259 3.53334 22.2808C3.53334 16.982 7.75898 12.6735 13.0135 12.5645Z" fill="#00F2EA"/>
</svg>
