<svg width="33" height="32" viewBox="0 0 33 32" fill="none" xmlns="http://www.w3.org/2000/svg">
<g clip-path="url(#clip0_114_15)">
<path d="M28.73 12.23C28.73 5.48 23.26 0 16.5 0C9.73999 0 4.26999 5.47 4.26999 12.23C4.26999 12.23 3.56999 22.32 14.86 31.43C15.81 32.2 17.19 32.2 18.14 31.43C29.42 22.33 28.73 12.23 28.73 12.23ZM16.5 17.82C13.24 17.82 10.59 15.17 10.59 11.91C10.59 8.65 13.24 6 16.5 6C19.76 6 22.41 8.65 22.41 11.91C22.41 15.17 19.76 17.82 16.5 17.82Z" fill="#FFB800"/>
</g>
<defs>
<clipPath id="clip0_114_15">
<rect width="32" height="32" fill="white" transform="translate(0.5)"/>
</clipPath>
</defs>
</svg>
