<svg width="32" height="32" viewBox="0 0 32 32" fill="none" xmlns="http://www.w3.org/2000/svg">
<g clip-path="url(#clip0_114_2)">
<path d="M24.9546 24.4795C23.6999 24.4795 22.5175 23.9916 21.6294 23.1035L16.83 18.3041C16.4944 17.9659 15.9058 17.9685 15.5701 18.3041L10.7527 23.1216C9.86462 24.0097 8.68479 24.4976 7.42751 24.4976H6.48261L12.5625 30.5775C14.46 32.475 17.54 32.475 19.4375 30.5775L25.5329 24.4821H24.9546V24.4795Z" fill="white"/>
<path d="M7.43009 7.5024C8.68479 7.5024 9.8672 7.99034 10.7553 8.87844L15.5727 13.6959C15.9187 14.0418 16.4866 14.0444 16.8352 13.6959L21.6345 8.89651C22.5226 8.00841 23.7025 7.52047 24.9597 7.52047H25.538L19.4427 1.42511C17.5451 -0.472432 14.4652 -0.472432 12.5676 1.42511L6.48778 7.50498H7.43268L7.43009 7.5024Z" fill="white"/>
<path d="M30.5775 12.5625L26.8934 8.8784C26.8134 8.91197 26.7256 8.93004 26.6327 8.93004H24.9572C24.0923 8.93004 23.2429 9.28115 22.6311 9.89301L17.8317 14.6924C17.3825 15.1416 16.7939 15.3662 16.2027 15.3662C15.6115 15.3662 15.0228 15.1416 14.5736 14.6924L9.75619 9.87494C9.14433 9.26308 8.29754 8.91197 7.43009 8.91197H5.36991C5.28213 8.91197 5.19952 8.89131 5.12207 8.86292L1.42251 12.5625C-0.47503 14.46 -0.47503 17.54 1.42251 19.4375L5.12207 23.1371C5.19952 23.1087 5.28213 23.088 5.36991 23.088H7.43009C8.29496 23.088 9.14433 22.7369 9.75619 22.125L14.5736 17.3076C15.4436 16.4376 16.9617 16.4376 17.8317 17.3076L22.6311 22.107C23.2429 22.7188 24.0897 23.0699 24.9572 23.0699H26.6327C26.7256 23.0699 26.8134 23.0906 26.8934 23.1216L30.5775 19.4375C32.475 17.54 32.475 14.46 30.5775 12.5625Z" fill="white"/>
</g>
<defs>
<clipPath id="clip0_114_2">
<rect width="32" height="32" fill="white"/>
</clipPath>
</defs>
</svg>
