<svg width="33" height="32" viewBox="0 0 33 32" fill="none" xmlns="http://www.w3.org/2000/svg">
<g clip-path="url(#clip0_139_117)">
<path d="M16.5014 0C7.67875 0 0.5 7.17875 0.5 16.0014C0.5 24.8241 7.67875 32.0028 16.5014 32.0028C25.3241 32.0028 32.5028 24.8241 32.5028 16.0014C32.5028 7.17875 25.3213 0 16.5014 0ZM17.9686 28.9815V28.2353C17.9686 27.4274 17.3093 26.7681 16.5014 26.7681C15.6935 26.7681 15.0342 27.4274 15.0342 28.2353V28.9815C8.95516 28.3026 4.17774 23.5112 3.51569 17.4293H4.22824C5.03616 17.4293 5.69541 16.7701 5.69541 15.9621C5.69541 15.1542 5.03616 14.495 4.22824 14.495H3.5213C4.21702 8.45516 8.98882 3.69457 15.0342 3.0185V3.69177C15.0342 4.49969 15.6935 5.15894 16.5014 5.15894C17.3093 5.15894 17.9686 4.49969 17.9686 3.69177V3.0185C24.0112 3.69457 28.7858 8.45516 29.4787 14.495H28.7718C27.9638 14.495 27.3046 15.1542 27.3046 15.9621C27.3046 16.7701 27.9638 17.4293 28.7718 17.4293H29.4843C28.8223 23.5112 24.0448 28.2998 17.9658 28.9815H17.9686Z" fill="white"/>
<path d="M24.1851 7.78467C23.8737 7.79308 23.582 7.92213 23.366 8.14655L16.42 15.4235C16.3864 15.4235 16.3527 15.4291 16.3191 15.4319L10.5317 11.0584C10.0156 10.6713 9.28338 10.7751 8.89625 11.2885C8.70829 11.5353 8.62694 11.8439 8.66902 12.1553C8.7111 12.4667 8.87381 12.7416 9.12348 12.9296L14.908 17.3002C15.0342 18.0689 15.7103 18.6524 16.5014 18.6524C17.3907 18.6524 18.1144 17.9286 18.1173 17.0393L25.0604 9.7624C25.5036 9.29392 25.4868 8.55332 25.0211 8.11008C24.7967 7.89407 24.5077 7.78186 24.1851 7.78747V7.78467Z" fill="white"/>
</g>
<defs>
<clipPath id="clip0_139_117">
<rect width="32" height="32" fill="white" transform="translate(0.5)"/>
</clipPath>
</defs>
</svg>
