<svg width="81" height="33" viewBox="0 0 81 33" fill="none" xmlns="http://www.w3.org/2000/svg">
<g clip-path="url(#clip0_58_92)">
<path d="M5.78235 24.8006C5.7181 27.3972 7.19581 27.9733 8.76775 27.9733C10.3397 27.9733 11.6889 27.1992 11.6889 25.5792C11.6889 24.3641 10.9822 23.3516 8.832 23.3516C3.49939 23.3516 0 20.1114 0 14.9497C0 9.78794 3.91915 6.41279 8.832 6.41279C9.92422 6.41279 11.0464 6.6468 12.1087 7.05182C12.6526 6.30928 13.2951 5.46775 13.8091 4.75671L18.0795 7.96086L16.0235 10.526C17.18 11.876 17.5955 13.5276 17.5312 15.0127C17.497 17.1053 16.4733 19.1619 14.6401 20.5479C17.5612 22.303 17.754 24.6656 17.754 25.5747C17.754 30.9749 13.2908 33 8.76347 33C3.08392 33 -0.0942309 29.8949 0.227011 24.8006H5.78235ZM5.74808 14.9452C5.74808 16.9343 7.0973 18.2168 8.832 18.2168C10.4039 18.2168 11.8174 17.1728 11.8174 14.9452C11.8174 13.0551 10.5667 11.5025 8.832 11.5025C7.0973 11.5025 5.74808 12.7176 5.74808 14.9452Z" fill="#B8B8B8"/>
<path d="M24.0589 6.95281L24.4101 8.77539C25.2453 7.22282 26.723 6.54779 28.265 6.54779C29.8069 6.54779 31.4131 7.18682 32.4411 8.33437L30.0639 12.8211C29.1002 12.011 28.3935 11.8085 27.3998 11.8085C25.9221 11.8085 24.6714 12.7536 24.6714 14.9452V23.6171H18.7605V6.95281H24.0589Z" fill="#B8B8B8"/>
<path d="M48.8844 15.3187C48.8844 21.394 44.2928 24.0266 39.8297 24.0266C35.3666 24.0266 30.7707 21.394 30.7707 15.3187C30.7707 9.24341 35.2338 6.57928 39.8297 6.57928C44.4256 6.57928 48.8844 9.24341 48.8844 15.3187ZM43.1021 15.3187C43.1021 13.3971 41.9156 11.6735 39.8254 11.6735C37.7352 11.6735 36.5487 13.3926 36.5487 15.3187C36.5487 17.2448 37.7352 18.9278 39.8254 18.9278C41.9156 18.9278 43.1021 17.3438 43.1021 15.3187Z" fill="#B8B8B8"/>
<path d="M62.6978 6.95282L65.4905 16.2322L66.6769 11.507L68.1546 6.95282H74.3524L68.5401 23.7251H63.1133L60.8988 17.4158L58.7144 23.7251H53.2233L47.441 6.95282H53.6088L55.1165 11.543L56.3372 16.2322L59.1299 6.95282H62.6935H62.6978Z" fill="#B8B8B8"/>
<path d="M77.5691 17.1773C82.1308 17.1773 82.1608 23.7926 77.5691 23.7926C72.9775 23.7926 73.0718 17.1773 77.5691 17.1773ZM74.6137 15.8632L74.5195 0.0045166H80.7516L80.6231 15.8632H74.618H74.6137Z" fill="#B8B8B8"/>
</g>
<defs>
<clipPath id="clip0_58_92">
<rect width="81" height="33" fill="white"/>
</clipPath>
</defs>
</svg>
